<?xml version="1.0" standalone="no"?>
<!DOCTYPE svg PUBLIC "-//W3C//DTD SVG 20010904//EN"
 "http://www.w3.org/TR/2001/REC-SVG-20010904/DTD/svg10.dtd">
<svg version="1.0" xmlns="http://www.w3.org/2000/svg"
 width="640.000000pt" height="640.000000pt" viewBox="0 0 640.000000 640.000000"
 preserveAspectRatio="xMidYMid meet">

<g transform="translate(0.000000,640.000000) scale(0.100000,-0.100000)"
fill="#000000" stroke="none">
<path d="M2781 5820 c-405 -87 -741 -232 -1076 -464 -312 -216 -606 -527 -789
-833 -261 -438 -391 -943 -373 -1443 26 -688 312 -1330 800 -1796 416 -398
936 -647 1495 -718 144 -19 483 -21 630 -6 479 52 937 223 1334 498 54 37 98
71 98 75 0 5 -12 39 -26 75 -53 133 -186 457 -189 461 -7 6 -210 -152 -207
-161 1 -5 -2 -7 -7 -4 -5 4 -37 -12 -71 -35 -164 -109 -406 -216 -616 -274
-230 -63 -351 -79 -609 -79 -210 0 -243 2 -375 27 -656 126 -1202 541 -1486
1132 -84 173 -140 351 -181 565 -14 74 -18 147 -18 335 0 226 2 248 29 380 32
157 89 337 141 451 19 41 35 77 35 78 0 9 113 202 148 253 335 493 936 862
1542 948 63 9 136 19 161 23 l46 7 -64 160 c-36 88 -84 207 -107 265 l-42 105
-44 2 c-25 1 -105 -11 -179 -27z"/>
<path d="M2823 4540 c-6 -6 -21 -42 -88 -205 -29 -71 -74 -182 -100 -245 -72
-175 -167 -409 -330 -810 -81 -201 -170 -419 -197 -485 -27 -66 -85 -210 -130
-320 -44 -110 -82 -206 -85 -212 -4 -10 58 -13 290 -13 l295 0 10 28 c6 15 54
140 107 277 53 138 118 306 145 375 27 69 121 314 210 545 89 231 173 450 188
488 14 37 29 64 33 60 4 -5 42 -98 84 -208 42 -110 96 -249 120 -310 35 -89
256 -664 325 -845 46 -122 124 -320 142 -362 l20 -48 294 0 293 0 -80 198
c-334 822 -467 1149 -684 1682 -86 212 -159 391 -162 397 -4 10 -89 13 -350
15 -189 2 -347 1 -350 -2z"/>
</g>
</svg>
